# xmcd CD database file generated by Grip 3.2.0
# 
# Track frame offsets:
#       150
#       10037
#       17907
#       34008
#       49591
#       62483
#       67432
#       89748
#       101937
#       114347
#       119916
#       130016
#       141273
#       149196
#       161948
#       170673
#       180109
#       204967
#       224225
#       237626
# 
# Disc length: 3386 seconds
# 
# Revision: 1
# Processed by: cddbd v1.5.2PL0 Copyright (c) Steve Scherf et al.
# Submitted via: Grip 3.2.0
# 
DISCID=3f0d3814
DTITLE=Tom Waits - Orphans - Bastards
DYEAR=2006
DGENRE=Jazz
TTITLE0=What Keeps Mankind Alive
TTITLE1=Childrens Story
TTITLE2=Heigh Ho
TTITLE3=Army Ants
TTITLE4=Books Of Moses
TTITLE5=Bone Chain
TTITLE6=Two Sisters
TTITLE7=First Kiss
TTITLE8=Dog Door
TTITLE9=Redrum
TTITLE10=Nirvana
TTITLE11=Home I'll Never Be
TTITLE12=Poor Little Lamb
TTITLE13=Altar Boy
TTITLE14=The Pontiac
TTITLE15=Spidey's Wild Ride
TTITLE16=King Kong
TTITLE17=On The Road
TTITLE18=Bonus Track Live
TTITLE19=Bonus Track
EXTD=YEAR: 2006
EXTT0=
EXTT1=
EXTT2=
EXTT3=
EXTT4=
EXTT5=
EXTT6=
EXTT7=
EXTT8=
EXTT9=
EXTT10=
EXTT11=
EXTT12=
EXTT13=
EXTT14=
EXTT15=
EXTT16=
EXTT17=
EXTT18=
EXTT19=
PLAYORDER=
